<svg xmlns="http://www.w3.org/2000/svg" viewBox="0 0 286.8 38.61"><defs><style>.cls-1{fill:#14b3bf;}</style></defs><title>资源 1</title><g id="图层_2" data-name="图层 2"><g id="图层_1-2" data-name="图层 1"><path class="cls-1" d="M15.19,24.05l-4.68,2.64Q9,29.31,7.41,31.64T4.65,35.49a20,20,0,0,1-2.08,2.32q-.88.8-1.3.8a1.19,1.19,0,0,1-.91-.38A1.26,1.26,0,0,1,0,37.34q0-1.9,2.14-4.75a29.39,29.39,0,0,1,6.76-6.07q2-3.85,3.3-7t2-5.38q.69-2.23,1-3.59a12.09,12.09,0,0,0,.27-1.72q0-.76-.58-.76a3.17,3.17,0,0,0-1.4.54,10.27,10.27,0,0,0-2,1.63,15.91,15.91,0,0,0-2,2.5,20.76,20.76,0,0,0-1.7,3.16,24.85,24.85,0,0,0-1.18,3.23,9.31,9.31,0,0,0-.41,2.37q0,.23.07,1l.39-.6a5,5,0,0,1,.58-.72,4,4,0,0,1,.74-.62,2,2,0,0,1,.54-.29q.32-.11.32,0a8.71,8.71,0,0,1-1,1.33q-1,1.22-1.74,2.21A4.9,4.9,0,0,1,4.92,24.9a2.2,2.2,0,0,1-1.14.49.67.67,0,0,1-.69-.49,5.3,5.3,0,0,1-.17-1.56,21.46,21.46,0,0,1,.89-5.75A21.26,21.26,0,0,1,6.19,12a16,16,0,0,1,3-3.44,17.51,17.51,0,0,1,3.42-2.4,6.24,6.24,0,0,1,2.61-.86A2.25,2.25,0,0,1,17,6.06a3,3,0,0,1,.63,2,7.75,7.75,0,0,1-.15,1.42q-.15.79-.38,1.6t-.79,2.6q-.56,1.79-.74,2.37a27.86,27.86,0,0,1-1.43,3.72q-.89,1.91-2.52,5.05l3.59-1.93Z"/><path class="cls-1" d="M26.53,22.77v1.18a9.3,9.3,0,0,1-1.86,1.41,4.13,4.13,0,0,1-2,.28q-2.29,2.71-4,2.71a2.79,2.79,0,0,1-1.79-.65,4.51,4.51,0,0,1-1.29-1.78A6.31,6.31,0,0,1,15,23.4a5.3,5.3,0,0,1,.75-2.5,11.18,11.18,0,0,1,1.93-2.56,10.93,10.93,0,0,1,2.54-1.92,5.35,5.35,0,0,1,2.51-.73,2.77,2.77,0,0,1,1.3.25.78.78,0,0,1,.47.71,1.31,1.31,0,0,1-.4.81,1.49,1.49,0,0,1,.91.47,2.07,2.07,0,0,1,.25,1.19,7.52,7.52,0,0,1-.4,2.13,10.62,10.62,0,0,1-1.08,2.41l.32.32h.26a1.27,1.27,0,0,0,.59-.15,3.92,3.92,0,0,0,.52-.32ZM22.9,18.15q-1.46.88-2.5,1.59a12.06,12.06,0,0,0-1.76,1.44,3.88,3.88,0,0,0-1,1.47q-.44,2-.44,2.13,0,1.16,1.62,1.16a5.55,5.55,0,0,0,2.53-1.3,4.65,4.65,0,0,1-.3-1.58,6.1,6.1,0,0,1,.46-2.26A18.68,18.68,0,0,1,22.9,18.15Z"/><path class="cls-1" d="M39.64,22.81v1.11Q38.11,25.48,37,26.47A14.22,14.22,0,0,1,35,28a2.87,2.87,0,0,1-1.42.51q-1.37,0-1.37-1.62a7,7,0,0,1,.85-3,34.18,34.18,0,0,1,2.45-4,10.29,10.29,0,0,0-1.49,1A10.14,10.14,0,0,0,32.82,22l-.91,1.06q-1.14,1.28-2.2,2.63t-1.42,1.75a1,1,0,0,1-.7.4q-1.37,0-1.37-3.37A10.14,10.14,0,0,1,26.54,22a12.54,12.54,0,0,1,1.79-3.53Q31.41,13.91,33.6,11a49.61,49.61,0,0,1,3.63-4.43q1.44-1.5,1.93-1.47a2.7,2.7,0,0,1,1,.25q.38.19.38.44a3.48,3.48,0,0,1-.61,1.45q-.61,1-2.08,3.16t-2.27,3.19q-.67.92-2,2.62t-2.43,3q-1.1,1.33-2.5,2.87v2.11q2.36-2.62,4.08-4.29a26.84,26.84,0,0,1,2.92-2.52,3.73,3.73,0,0,1,1.76-.85,1.26,1.26,0,0,1,1,.62,1.91,1.91,0,0,1,.46,1,.85.85,0,0,1-.18.44q-1.27,1.51-2,2.5a12.88,12.88,0,0,0-1.15,1.78,3,3,0,0,0-.4,1.34q0,.83.79.83T39.64,22.81Z"/><path class="cls-1" d="M51.49,19.62q-3.09,3.45-3.09,4.8,0,.76.62.76a2.66,2.66,0,0,0,1.33-.54q.82-.54,2.56-1.91v1.21q-2.5,2.46-3.83,3.55a3.89,3.89,0,0,1-2.18,1.09q-1.44,0-1.44-1.9a3.59,3.59,0,0,1,.18-1.11,7.3,7.3,0,0,1,.48-1.13q.31-.59.94-1.69t1.46-2.49a11.05,11.05,0,0,0-2.51,2,19.62,19.62,0,0,0-1.67,1.8q-.69.85-1.47,1.9A14.91,14.91,0,0,1,41.7,27.4a1,1,0,0,1-.73.36q-.56,0-1-1.18a7.3,7.3,0,0,1-.47-2.74,4.16,4.16,0,0,1,.22-1.51,10.12,10.12,0,0,1,.87-1.55,17.19,17.19,0,0,1,2.09-2.73,2.49,2.49,0,0,1,1.69-.87,1.84,1.84,0,0,1,.91.19.64.64,0,0,1,.34.6.77.77,0,0,1-.11.37,2.17,2.17,0,0,1-.24.35l-.55.62q-2.78,3.08-2.78,4,0,.51.33.51t.82-.68l1.56-1.78a28.53,28.53,0,0,1,2.27-2.29,24.47,24.47,0,0,1,3-2.3,2.94,2.94,0,0,1,1.55-.65q.28,0,.55.77a4.68,4.68,0,0,1,.27,1.56Q52.24,18.83,51.49,19.62Z"/><path class="cls-1" d="M64.63,19.62q-3.09,3.45-3.09,4.8,0,.76.62.76a2.66,2.66,0,0,0,1.33-.54q.82-.54,2.56-1.91v1.21q-2.5,2.46-3.83,3.55A3.89,3.89,0,0,1,60,28.59q-1.44,0-1.44-1.9a3.59,3.59,0,0,1,.18-1.11,7.3,7.3,0,0,1,.48-1.13q.31-.59.94-1.69t1.46-2.49a11.05,11.05,0,0,0-2.51,2,19.62,19.62,0,0,0-1.67,1.8Q56.78,25,56,26a14.91,14.91,0,0,1-1.14,1.41,1,1,0,0,1-.73.36q-.56,0-1-1.18a7.3,7.3,0,0,1-.47-2.74,4.16,4.16,0,0,1,.22-1.51,10.12,10.12,0,0,1,.87-1.55,17.19,17.19,0,0,1,2.09-2.73,2.49,2.49,0,0,1,1.69-.87,1.84,1.84,0,0,1,.91.19.64.64,0,0,1,.34.6.77.77,0,0,1-.11.37,2.17,2.17,0,0,1-.24.35l-.55.62q-2.78,3.08-2.78,4,0,.51.33.51t.82-.68l1.56-1.78A28.53,28.53,0,0,1,60,19.06a24.47,24.47,0,0,1,3-2.3,2.94,2.94,0,0,1,1.55-.65q.28,0,.55.77a4.68,4.68,0,0,1,.27,1.56Q65.39,18.83,64.63,19.62Z"/><path class="cls-1" d="M74,23.49l-3.13,2.65q-2.23,2-3,2t-1.44-1.57a6.53,6.53,0,0,1-.76-2.75,4.18,4.18,0,0,1,.31-1.7,12.21,12.21,0,0,1,1.06-1.8,24.11,24.11,0,0,1,2.06-2.53,14.88,14.88,0,0,1,1.74-1.61,2.37,2.37,0,0,1,1.05-.57,1.27,1.27,0,0,1,.92.49,1.51,1.51,0,0,1,.45,1,2.41,2.41,0,0,1-.48,1.07A15.49,15.49,0,0,1,71.31,20a34,34,0,0,1-2.91,2.72l-.33,1a1.13,1.13,0,0,0-.14.49.42.42,0,0,0,.47.47,6.62,6.62,0,0,0,2.31-1.25,29.28,29.28,0,0,0,3.95-3.36q.83-.83,1.37-1.46t1-1.19a9,9,0,0,1,.73-.83.91.91,0,0,1,.52-.3.66.66,0,0,1,.69.37,2.52,2.52,0,0,1,.25,1.25,2.48,2.48,0,0,1-.42,1.19q-.42.71-1.58,2.43t-2.31,3.55q-1.15,1.84-2.35,4.14l1.08-1.05,2.17-2.09q1.14-1.09,1.88-1.75t1.85-1.54v1.18q-2.37,2.55-4.3,4.83t-3,3.66L71,34q-.47.62-.85,1.15a10.25,10.25,0,0,1-.63.83q-.25.29-.41.29-.37,0-.66-.73a3.56,3.56,0,0,1-.29-1.29,2,2,0,0,1,.19-.9A96.7,96.7,0,0,1,74,23.49Z"/><path class="cls-1" d="M102.9,26.73l-6.63-3.23a20.14,20.14,0,0,0-2.83,4.57,2.39,2.39,0,0,1-.94,1.33,2.27,2.27,0,0,1-1,.54q-.9,0-.9-.69A8,8,0,0,1,91.63,27a46.14,46.14,0,0,1,2.93-4.33q-1-.42-1.28-.56a.48.48,0,0,1-.19-.54,3.56,3.56,0,0,1,.62-1.24,8,8,0,0,1,.74-1,1.84,1.84,0,0,1,.58-.4,2.62,2.62,0,0,1,.7-.2l2.07-.26,3-4.06L103.34,11q-2.76.37-3.85.62L97.55,12a8.22,8.22,0,0,0-1.1.26q-.32.11-.32.33t.39.26a5.6,5.6,0,0,0,1,.07,7.26,7.26,0,0,1,.91,0q.33,0,.33.2t-.43.2l-2.42.11L94,13.58l-1.06,0a.82.82,0,0,1-.63-.25.92.92,0,0,1-.23-.65,3.65,3.65,0,0,1,.33-1.11A7.64,7.64,0,0,1,93.36,10a4.68,4.68,0,0,1,1.41-1.28,12.34,12.34,0,0,1,2.79-1.1,32.82,32.82,0,0,1,8.78-1.24,22.34,22.34,0,0,1,2.68.16q1.31.16,2.37.39a12.67,12.67,0,0,1,1.68.46A5.05,5.05,0,0,1,115.51,9a3.7,3.7,0,0,1,.85,2.36,7.08,7.08,0,0,1-.43,2.43,6.86,6.86,0,0,1-1.32,2.2,7.06,7.06,0,0,1-2.14,1.64,16,16,0,0,1-3.09,1.07,45.57,45.57,0,0,1-5,1q-2.94.42-6.56.62,2.71.95,5.05,1.91t4,1.71q1.61.75,2.52,1.22A13.48,13.48,0,0,1,111,26a1.39,1.39,0,0,1,.51.77,7,7,0,0,1,.12,1.56,8.05,8.05,0,0,1-.15,1.82q-.15.59-.64.59a3,3,0,0,1-.83-.34q-.68-.34-1.87-1L106,28.26Q105,27.75,102.9,26.73Zm1.55-15.87q0,.12,0,.23t0,.3a2.69,2.69,0,0,1-.31,1.13,8.91,8.91,0,0,1-.79,1.32q-.48.68-1.44,1.93l-1.77,2.31q3.69-.7,6.3-1.35a36.07,36.07,0,0,0,4.3-1.31A9,9,0,0,0,113.32,14a2,2,0,0,0,.85-1.52q0-.88-1.78-1.38a16.37,16.37,0,0,0-4.37-.5l-1.12,0q-.59,0-1.41.11Z"/><path class="cls-1" d="M121.55,22.81v1.28a18,18,0,0,1-3.18,3.31,4.49,4.49,0,0,1-2.51,1.12A2.28,2.28,0,0,1,113.71,27a7.74,7.74,0,0,1-.7-3.3,5.94,5.94,0,0,1,.14-1.31,4.93,4.93,0,0,1,.33-1q.19-.4.72-1.27,2.5-3.88,4.57-3.88,1.07,0,1.07.83a4.16,4.16,0,0,1-.69,1.76,7.73,7.73,0,0,1-1.24,1.71,27.81,27.81,0,0,0-2,2.06,2,2,0,0,0-.47,1.32,1.35,1.35,0,0,0,.47,1.05,1.78,1.78,0,0,0,1.23.42,3.56,3.56,0,0,0,1.82-.61A22.41,22.41,0,0,0,121.55,22.81Zm-1.2-7.86a1.28,1.28,0,0,1-.83-.33,1.06,1.06,0,0,1-.4-.84,2.92,2.92,0,0,1,.74-1.72,2,2,0,0,1,1.53-.95,1.24,1.24,0,0,1,.88.33,1.22,1.22,0,0,1,.35.94A2.8,2.8,0,0,1,121.9,14,2,2,0,0,1,120.36,14.95Z"/><path class="cls-1" d="M123.45,19.66a21.36,21.36,0,0,1,5.19-3.6,10.14,10.14,0,0,1,3.88-1.18,1,1,0,0,1,.69.31,2.34,2.34,0,0,1,.5.71,1.66,1.66,0,0,1,.18.6.51.51,0,0,1-.25.47,4.9,4.9,0,0,1-.86.36l.32.72q.19.44.3.71a1.36,1.36,0,0,1,.11.48,3.7,3.7,0,0,1-.85,1.57q-.85,1.15-1.2,1.7a2.46,2.46,0,0,0-.34,1.34q0,1.3,1.2,1.3t3.85-2.3v1.07q-4.45,4.94-6.36,4.94a1.07,1.07,0,0,1-1-.45,2.46,2.46,0,0,1-.29-1.33,12.52,12.52,0,0,1,1-4Q127,25.9,125.72,27.1a3.44,3.44,0,0,1-2.06,1.2q-.39,0-1-.67a6.44,6.44,0,0,1-1-1.73,5.63,5.63,0,0,1-.45-2.21,5.11,5.11,0,0,1,.16-1.38,3.34,3.34,0,0,1,.62-1.13A15.66,15.66,0,0,1,123.45,19.66Zm8.42-1.93a38.05,38.05,0,0,0-6.51,3.55,4,4,0,0,0-1.94,3,1.94,1.94,0,0,0,.19.92.59.59,0,0,0,.53.36,1.92,1.92,0,0,0,.69-.25,13.82,13.82,0,0,0,3.38-2.84Q129.73,20.73,131.87,17.73Z"/><path class="cls-1" d="M147.85,19.62q-3.09,3.45-3.09,4.8,0,.76.62.76a2.66,2.66,0,0,0,1.33-.54q.82-.54,2.56-1.91v1.21q-2.5,2.46-3.83,3.55a3.89,3.89,0,0,1-2.18,1.09q-1.44,0-1.44-1.9a3.59,3.59,0,0,1,.18-1.11,7.3,7.3,0,0,1,.48-1.13q.31-.59.94-1.69t1.46-2.49a11.05,11.05,0,0,0-2.51,2,19.62,19.62,0,0,0-1.67,1.8Q140,25,139.21,26a14.91,14.91,0,0,1-1.14,1.41,1,1,0,0,1-.73.36q-.56,0-1-1.18a7.3,7.3,0,0,1-.47-2.74,4.16,4.16,0,0,1,.22-1.51,10.12,10.12,0,0,1,.87-1.55A17.19,17.19,0,0,1,139,18.05a2.49,2.49,0,0,1,1.69-.87,1.84,1.84,0,0,1,.91.19.64.64,0,0,1,.34.6.77.77,0,0,1-.11.37,2.17,2.17,0,0,1-.24.35l-.55.62q-2.78,3.08-2.78,4,0,.51.33.51t.82-.68L141,21.36a28.53,28.53,0,0,1,2.27-2.29,24.47,24.47,0,0,1,3-2.3,2.94,2.94,0,0,1,1.55-.65q.28,0,.55.77a4.68,4.68,0,0,1,.27,1.56Q148.61,18.83,147.85,19.62Z"/><path class="cls-1" d="M161.42,19.74H170v1.69h-8.6Z"/><path class="cls-1" d="M188.65.78A65.44,65.44,0,0,1,187,9.5V32.84q-.84,1.12-1.69,0V13.44a17.51,17.51,0,0,1-3.09,5.06q-1.41.28-1.12-1.12Q185.83,10.62,187,.5,188.08-.62,188.65.78ZM212,1.06q1.12.84,0,1.69-4.5.56-9.84.84V15.12H213.4q1.12.84,0,1.69H202.15v13.5h10.13q1.12.84,0,1.69H190.9q-1.13-.84,0-1.69h9.56V16.81H189.77q-1.13-.84,0-1.69h10.69V3.59q-4.78.28-9.56.28-1.13-.84,0-1.69A195.79,195.79,0,0,0,212,1.06Z"/><path class="cls-1" d="M218.18,15.69h14.06q1.12.84,0,1.69h-8.16a19.22,19.22,0,0,1-2,3.94h6.19q3.38,0,3.09,2.81v5.34q.28,2.81-3.09,2.53h-5.62q-2.81.28-2.81-2.81V24.12a11.09,11.09,0,0,1-1.69,1.41q-1.69,0-.84-1.41a15.36,15.36,0,0,0,5.06-6.75h-4.22Q217.05,16.53,218.18,15.69ZM219.3,1.06h29.81q1.12.84,0,1.69H230A21,21,0,0,1,228,5h14.63q3.38,0,3.09,2.81v3.66q.28,2.81-2.81,2.53H226.33q-2.53.28-2.53-2.81V8.66a24.93,24.93,0,0,1-4.5,2q-1.69,0-.56-1.41A24,24,0,0,0,228,2.75H219.3Q217.9,1.91,219.3,1.06Zm9,21.94H223a1.24,1.24,0,0,0-1.41,1.41v4.5q0,1.69,1.41,1.41h5.34q1.69.28,1.41-1.41v-4.5Q230,23,228.3,23ZM242.65,6.69H226.9a1.24,1.24,0,0,0-1.41,1.41v2.81q0,1.69,1.41,1.41h15.47q2,.28,1.69-1.41V8.09Q244.33,6.69,242.65,6.69Zm-8.16,9h15.75q1.12.84,0,1.69h-9.56A28.2,28.2,0,0,1,239,20.75h7.31q3.09,0,2.81,2.81v5.63Q249.4,32.28,246,32h-7q-2.81.28-2.81-3.09V24.69a16.53,16.53,0,0,1-1.69,1.41q-1.69,0-.84-1.41A20.58,20.58,0,0,0,239,17.37h-4.5Q233.36,16.81,234.49,15.69ZM246,22.44h-6.75a1.24,1.24,0,0,0-1.41,1.41v5.06q0,1.69,1.41,1.41H246q1.69.28,1.41-1.41V23.84Q247.71,22.44,246,22.44Z"/><path class="cls-1" d="M254.18,15.69h14.06q1.12.84,0,1.69h-8.16a19.22,19.22,0,0,1-2,3.94h6.19q3.38,0,3.09,2.81v5.34q.28,2.81-3.09,2.53h-5.62q-2.81.28-2.81-2.81V24.12a11.09,11.09,0,0,1-1.69,1.41q-1.69,0-.84-1.41a15.36,15.36,0,0,0,5.06-6.75h-4.22Q253.05,16.53,254.18,15.69ZM255.3,1.06h29.81q1.12.84,0,1.69H266A21,21,0,0,1,264,5h14.63q3.38,0,3.09,2.81v3.66q.28,2.81-2.81,2.53H262.33q-2.53.28-2.53-2.81V8.66a24.93,24.93,0,0,1-4.5,2q-1.69,0-.56-1.41A24,24,0,0,0,264,2.75H255.3Q253.9,1.91,255.3,1.06Zm9,21.94H259a1.24,1.24,0,0,0-1.41,1.41v4.5q0,1.69,1.41,1.41h5.34q1.69.28,1.41-1.41v-4.5Q266,23,264.3,23ZM278.65,6.69H262.9a1.24,1.24,0,0,0-1.41,1.41v2.81q0,1.69,1.41,1.41h15.47q2,.28,1.69-1.41V8.09Q280.33,6.69,278.65,6.69Zm-8.16,9h15.75q1.12.84,0,1.69h-9.56A28.2,28.2,0,0,1,275,20.75h7.31q3.09,0,2.81,2.81v5.63Q285.4,32.28,282,32h-7q-2.81.28-2.81-3.09V24.69a16.53,16.53,0,0,1-1.69,1.41q-1.69,0-.84-1.41A20.58,20.58,0,0,0,275,17.37h-4.5Q269.36,16.81,270.49,15.69ZM282,22.44h-6.75a1.24,1.24,0,0,0-1.41,1.41v5.06q0,1.69,1.41,1.41H282q1.69.28,1.41-1.41V23.84Q283.71,22.44,282,22.44Z"/></g></g></svg>